<svg width="1153" height="793" viewBox="0 0 1153 793" fill="none" xmlns="http://www.w3.org/2000/svg">
<path d="M725.9 735.375C727.191 735.375 728.433 735.489 729.626 735.734C730.835 735.979 731.979 736.323 733.058 736.797C733.629 737.042 734.152 737.303 734.626 737.564C735.149 737.859 735.639 738.186 736.097 738.513C736.571 738.872 737.028 739.248 737.437 739.624C737.861 740.016 738.271 740.425 738.646 740.85C739.398 741.716 740.085 742.664 740.673 743.677C741.261 744.69 741.767 745.801 742.176 746.978C742.601 748.154 742.912 749.396 743.124 750.703C743.336 751.994 743.45 753.334 743.45 754.69C743.45 756.504 743.287 758.236 742.943 759.887C742.6 761.537 742.094 763.106 741.408 764.609C740.706 766.129 739.872 767.469 738.875 768.679C737.878 769.888 736.734 770.933 735.443 771.815C734.152 772.714 732.747 773.385 731.26 773.826C729.773 774.267 728.204 774.496 726.554 774.496C724.315 774.496 722.288 774.038 720.458 773.14C719.478 772.649 718.563 772.045 717.713 771.293V787.242C717.713 787.912 717.631 788.517 717.468 789.072C717.125 790.183 716.356 791.18 715.245 791.67C714.199 792.144 712.925 792.144 711.879 791.67C709.902 790.755 709.281 788.778 709.281 786.784V739.738C709.281 739.117 709.379 738.562 709.575 738.039C709.771 737.5 710.099 737.025 710.523 736.601C710.932 736.209 711.373 735.915 711.847 735.702C712.337 735.49 712.86 735.392 713.415 735.392C714.003 735.392 714.543 735.489 715.05 735.669C715.556 735.849 716.013 736.127 716.422 736.486C716.863 736.878 717.19 737.336 717.419 737.875C717.468 738.006 717.517 738.12 717.55 738.251C718.171 737.646 718.873 737.156 719.674 736.731C721.39 735.833 723.466 735.375 725.9 735.375ZM662.561 782.777C663.094 782.777 663.575 782.887 664.002 783.108C664.386 783.307 664.698 783.593 664.94 783.964V782.834H665.718V788.107C665.718 789.144 665.463 789.903 664.952 790.384C664.449 790.872 663.701 791.116 662.71 791.116C662.161 791.116 661.634 791.036 661.131 790.876C660.628 790.716 660.22 790.487 659.907 790.189L660.319 789.572C660.601 789.824 660.949 790.022 661.36 790.167C661.78 790.319 662.222 790.395 662.687 790.396C663.449 790.396 664.01 790.216 664.368 789.857C664.726 789.507 664.906 788.958 664.906 788.211V787.452C664.669 787.799 664.368 788.072 664.002 788.268C663.575 788.496 663.094 788.611 662.561 788.611C661.989 788.611 661.474 788.489 661.017 788.245C660.559 787.993 660.197 787.646 659.93 787.204C659.67 786.762 659.541 786.255 659.541 785.683C659.541 785.111 659.671 784.607 659.93 784.173C660.197 783.731 660.559 783.388 661.017 783.144C661.474 782.9 661.989 782.777 662.561 782.777ZM812.018 789.284C812.018 789.841 811.865 790.283 811.561 790.611C811.263 790.947 810.828 791.114 810.256 791.114C810.012 791.114 809.78 791.08 809.559 791.012C809.33 790.951 809.139 790.855 808.986 790.726L809.272 790.107C809.516 790.313 809.829 790.417 810.21 790.417C810.53 790.417 810.775 790.321 810.942 790.131C811.118 789.94 811.205 789.658 811.205 789.284V782.833H812.018V789.284ZM586.578 782.777C587.356 782.777 587.955 782.972 588.374 783.36C588.801 783.742 589.015 784.325 589.015 785.11V788.84H588.237V787.895C588.081 788.153 587.864 788.369 587.585 788.542C587.211 788.778 586.738 788.896 586.166 788.896C585.716 788.896 585.324 788.825 584.988 788.68C584.66 788.527 584.409 788.321 584.233 788.062C584.058 787.795 583.97 787.49 583.97 787.146C583.97 786.834 584.043 786.551 584.188 786.3C584.34 786.041 584.585 785.835 584.92 785.683C585.263 785.523 585.72 785.442 586.292 785.442H588.202V785.076C588.202 784.565 588.057 784.173 587.768 783.898C587.485 783.624 587.062 783.486 586.498 783.486C586.109 783.486 585.739 783.551 585.389 783.681C585.038 783.81 584.74 783.982 584.496 784.195L584.13 783.589C584.435 783.33 584.801 783.131 585.229 782.994C585.655 782.849 586.105 782.777 586.578 782.777ZM593.485 782.777C593.996 782.777 594.458 782.876 594.87 783.074C595.282 783.272 595.605 783.57 595.842 783.967L595.235 784.379C595.03 784.074 594.775 783.849 594.47 783.704C594.165 783.559 593.833 783.486 593.475 783.486C593.048 783.486 592.662 783.586 592.319 783.784C591.976 783.975 591.705 784.245 591.507 784.596C591.309 784.946 591.209 785.358 591.209 785.831C591.209 786.304 591.309 786.716 591.507 787.066C591.705 787.417 591.976 787.692 592.319 787.891C592.662 788.081 593.048 788.176 593.475 788.176C593.833 788.176 594.165 788.104 594.47 787.959C594.774 787.814 595.03 787.593 595.235 787.296L595.842 787.707C595.605 788.096 595.282 788.394 594.87 788.6C594.458 788.798 593.996 788.896 593.485 788.896C592.891 788.896 592.357 788.767 591.884 788.508C591.419 788.241 591.053 787.878 590.786 787.421C590.519 786.956 590.386 786.426 590.386 785.831C590.386 785.229 590.519 784.699 590.786 784.241C591.053 783.784 591.419 783.425 591.884 783.166C592.357 782.907 592.891 782.777 593.485 782.777ZM615.244 782.777C615.808 782.777 616.308 782.907 616.742 783.166C617.184 783.418 617.532 783.776 617.783 784.241C618.035 784.699 618.161 785.229 618.161 785.831C618.161 785.869 618.157 785.911 618.149 785.957V786.083H613.103C613.129 786.452 613.224 786.784 613.391 787.078C613.597 787.421 613.879 787.692 614.237 787.891C614.603 788.081 615.019 788.176 615.484 788.176C615.85 788.176 616.189 788.111 616.502 787.981C616.822 787.852 617.097 787.654 617.326 787.387L617.783 787.913C617.516 788.233 617.181 788.478 616.776 788.646C616.38 788.813 615.941 788.896 615.461 788.896C614.836 788.896 614.287 788.767 613.814 788.508C613.342 788.241 612.972 787.878 612.705 787.421C612.438 786.956 612.305 786.426 612.305 785.831C612.305 785.236 612.43 784.71 612.682 784.253C612.941 783.795 613.292 783.437 613.734 783.178C614.184 782.911 614.687 782.777 615.244 782.777ZM621.346 782.777C621.735 782.777 622.124 782.831 622.513 782.938C622.902 783.037 623.222 783.17 623.474 783.338L623.119 783.989C622.852 783.806 622.566 783.677 622.261 783.601C621.956 783.517 621.651 783.475 621.346 783.475C620.804 783.475 620.404 783.57 620.145 783.761C619.893 783.944 619.768 784.18 619.768 784.47C619.768 784.699 619.836 784.878 619.974 785.008C620.118 785.137 620.306 785.24 620.534 785.316C620.77 785.385 621.026 785.443 621.3 785.488C621.582 785.534 621.861 785.592 622.136 785.66C622.418 785.721 622.673 785.809 622.901 785.923C623.138 786.03 623.325 786.186 623.462 786.392C623.607 786.59 623.68 786.853 623.68 787.181C623.68 787.531 623.58 787.836 623.382 788.096C623.191 788.347 622.91 788.547 622.536 788.691C622.17 788.829 621.723 788.896 621.197 788.896C620.702 788.896 620.232 788.829 619.79 788.691C619.348 788.547 619.001 788.367 618.749 788.153L619.115 787.513C619.359 787.696 619.672 787.856 620.054 787.993C620.435 788.123 620.836 788.188 621.255 788.188C621.827 788.187 622.239 788.1 622.49 787.925C622.742 787.742 622.867 787.501 622.867 787.204C622.867 786.983 622.795 786.811 622.65 786.689C622.513 786.56 622.329 786.464 622.101 786.403C621.872 786.335 621.617 786.277 621.335 786.231C621.053 786.186 620.77 786.132 620.488 786.071C620.214 786.01 619.962 785.923 619.733 785.809C619.505 785.687 619.318 785.522 619.173 785.316C619.036 785.111 618.967 784.836 618.967 784.493C618.967 784.165 619.058 783.872 619.241 783.612C619.424 783.353 619.691 783.151 620.042 783.006C620.4 782.853 620.835 782.777 621.346 782.777ZM641.714 782.777C642.492 782.777 643.09 782.971 643.51 783.36C643.937 783.742 644.15 784.325 644.15 785.11V788.84H643.372V787.895C643.216 788.153 642.999 788.369 642.721 788.542C642.347 788.778 641.874 788.896 641.302 788.896C640.852 788.896 640.459 788.824 640.124 788.68C639.796 788.527 639.545 788.321 639.369 788.062C639.194 787.795 639.105 787.49 639.105 787.146C639.106 786.834 639.178 786.551 639.323 786.3C639.476 786.041 639.719 785.835 640.055 785.683C640.398 785.522 640.856 785.442 641.428 785.442H643.338V785.076C643.338 784.565 643.193 784.173 642.903 783.898C642.621 783.624 642.198 783.486 641.634 783.486C641.245 783.486 640.875 783.551 640.524 783.681C640.174 783.81 639.876 783.982 639.632 784.195L639.266 783.589C639.571 783.33 639.937 783.131 640.364 782.994C640.791 782.849 641.241 782.777 641.714 782.777ZM655.733 782.777C656.511 782.777 657.11 782.971 657.529 783.36C657.956 783.742 658.17 784.325 658.17 785.11V788.84H657.392V787.895C657.235 788.153 657.018 788.369 656.739 788.542C656.366 788.778 655.893 788.896 655.321 788.896C654.872 788.896 654.479 788.824 654.144 788.68C653.816 788.527 653.563 788.321 653.388 788.062C653.213 787.795 653.125 787.489 653.125 787.146C653.125 786.834 653.198 786.551 653.343 786.3C653.495 786.041 653.739 785.835 654.074 785.683C654.417 785.522 654.875 785.442 655.447 785.442H657.357V785.076C657.357 784.565 657.212 784.173 656.923 783.898C656.641 783.624 656.218 783.486 655.653 783.486C655.265 783.486 654.895 783.551 654.544 783.681C654.193 783.81 653.895 783.982 653.651 784.195L653.285 783.589C653.59 783.33 653.957 783.131 654.384 782.994C654.811 782.849 655.261 782.777 655.733 782.777ZM670.082 782.777C670.646 782.777 671.146 782.907 671.581 783.166C672.023 783.418 672.37 783.776 672.622 784.241C672.874 784.699 672.999 785.229 672.999 785.831C672.999 785.869 672.996 785.911 672.988 785.957V786.083H667.94C667.967 786.452 668.063 786.784 668.229 787.078C668.435 787.421 668.718 787.692 669.076 787.891C669.442 788.081 669.857 788.176 670.322 788.176C670.688 788.176 671.028 788.111 671.341 787.981C671.661 787.852 671.935 787.654 672.164 787.387L672.622 787.913C672.355 788.233 672.019 788.478 671.615 788.646C671.219 788.813 670.78 788.896 670.3 788.896C669.674 788.896 669.125 788.767 668.652 788.508C668.18 788.241 667.81 787.878 667.543 787.421C667.276 786.956 667.143 786.426 667.143 785.831C667.143 785.236 667.269 784.71 667.521 784.253C667.78 783.795 668.13 783.437 668.572 783.178C669.022 782.911 669.525 782.777 670.082 782.777ZM688.659 782.777C689.223 782.777 689.723 782.907 690.157 783.166C690.599 783.418 690.947 783.776 691.198 784.241C691.45 784.699 691.576 785.229 691.576 785.831C691.576 785.869 691.572 785.911 691.564 785.957V786.083H686.518C686.544 786.452 686.639 786.784 686.806 787.078C687.012 787.421 687.294 787.692 687.652 787.891C688.018 788.081 688.434 788.176 688.899 788.176C689.265 788.176 689.604 788.111 689.917 787.981C690.237 787.852 690.512 787.654 690.741 787.387L691.198 787.913C690.931 788.233 690.596 788.478 690.192 788.646C689.796 788.813 689.357 788.896 688.877 788.896C688.252 788.896 687.702 788.767 687.229 788.508C686.757 788.241 686.387 787.878 686.12 787.421C685.853 786.956 685.72 786.426 685.72 785.831C685.72 785.236 685.845 784.71 686.097 784.253C686.356 783.795 686.707 783.437 687.149 783.178C687.599 782.911 688.103 782.777 688.659 782.777ZM738.976 782.776C739.54 782.776 740.04 782.907 740.475 783.166C740.917 783.418 741.263 783.776 741.515 784.241C741.766 784.699 741.893 785.229 741.893 785.831C741.893 785.869 741.888 785.911 741.881 785.957V786.083H736.834C736.861 786.452 736.957 786.784 737.123 787.078C737.329 787.421 737.611 787.691 737.969 787.89C738.335 788.08 738.751 788.176 739.216 788.176C739.582 788.176 739.922 788.111 740.234 787.981C740.554 787.852 740.829 787.654 741.058 787.387L741.515 787.913C741.248 788.233 740.913 788.477 740.509 788.645C740.112 788.812 739.674 788.896 739.193 788.896C738.568 788.896 738.019 788.767 737.546 788.508C737.073 788.241 736.703 787.878 736.437 787.421C736.17 786.956 736.036 786.426 736.036 785.831C736.036 785.236 736.161 784.71 736.413 784.252C736.672 783.794 737.024 783.436 737.466 783.177C737.916 782.91 738.419 782.776 738.976 782.776ZM752.923 782.776C753.701 782.776 754.299 782.971 754.719 783.36C755.146 783.742 755.359 784.325 755.359 785.11V788.839H754.582V787.895C754.426 788.153 754.208 788.369 753.93 788.542C753.556 788.778 753.083 788.896 752.511 788.896C752.061 788.896 751.668 788.824 751.333 788.679C751.005 788.526 750.753 788.321 750.578 788.062C750.403 787.795 750.314 787.49 750.314 787.146C750.314 786.834 750.387 786.551 750.532 786.3C750.685 786.041 750.929 785.835 751.265 785.683C751.608 785.523 752.065 785.442 752.637 785.442H754.547V785.076C754.547 784.565 754.402 784.172 754.112 783.897C753.83 783.623 753.407 783.486 752.843 783.486C752.454 783.486 752.084 783.551 751.733 783.681C751.383 783.81 751.085 783.982 750.841 784.195L750.475 783.589C750.78 783.33 751.146 783.131 751.573 782.994C752 782.849 752.45 782.776 752.923 782.776ZM799.13 782.776C799.725 782.776 800.251 782.907 800.708 783.166C801.173 783.425 801.536 783.784 801.795 784.241C802.062 784.699 802.195 785.229 802.195 785.831C802.195 786.426 802.062 786.956 801.795 787.421C801.536 787.878 801.173 788.241 800.708 788.508C800.243 788.767 799.717 788.896 799.13 788.896C798.55 788.896 798.028 788.767 797.562 788.508C797.105 788.241 796.742 787.878 796.476 787.421C796.209 786.956 796.075 786.426 796.075 785.831C796.075 785.229 796.209 784.699 796.476 784.241C796.742 783.784 797.105 783.425 797.562 783.166C798.02 782.907 798.543 782.776 799.13 782.776ZM816.393 782.776C816.957 782.776 817.456 782.907 817.891 783.166C818.333 783.418 818.68 783.776 818.932 784.241C819.183 784.699 819.309 785.229 819.309 785.831C819.309 785.869 819.305 785.911 819.298 785.957V786.083H814.25C814.277 786.452 814.373 786.784 814.539 787.078C814.745 787.421 815.027 787.691 815.386 787.89C815.752 788.08 816.168 788.176 816.633 788.176C816.999 788.176 817.338 788.111 817.65 787.981C817.971 787.852 818.245 787.653 818.474 787.387L818.932 787.913C818.665 788.233 818.329 788.477 817.925 788.645C817.528 788.812 817.09 788.896 816.609 788.896C815.984 788.896 815.435 788.767 814.962 788.508C814.489 788.241 814.119 787.878 813.853 787.421C813.586 786.956 813.452 786.426 813.452 785.831C813.452 785.236 813.578 784.71 813.83 784.252C814.089 783.795 814.44 783.436 814.882 783.177C815.332 782.91 815.836 782.776 816.393 782.776ZM833.913 782.776C834.477 782.776 834.977 782.907 835.412 783.166C835.854 783.418 836.201 783.776 836.452 784.241C836.704 784.699 836.83 785.229 836.83 785.831C836.83 785.869 836.826 785.911 836.818 785.957V786.083H831.771C831.798 786.452 831.894 786.784 832.061 787.078C832.266 787.421 832.548 787.691 832.906 787.89C833.272 788.08 833.688 788.176 834.153 788.176C834.519 788.176 834.859 788.111 835.172 787.981C835.492 787.852 835.766 787.654 835.995 787.387L836.452 787.913C836.185 788.233 835.85 788.477 835.446 788.645C835.05 788.812 834.611 788.896 834.131 788.896C833.506 788.896 832.956 788.767 832.483 788.508C832.011 788.241 831.641 787.878 831.374 787.421C831.107 786.956 830.974 786.426 830.974 785.831C830.974 785.236 831.099 784.71 831.351 784.252C831.61 783.794 831.961 783.436 832.403 783.177C832.853 782.91 833.357 782.776 833.913 782.776ZM846.28 782.776C846.845 782.776 847.344 782.907 847.778 783.166C848.221 783.418 848.568 783.776 848.819 784.241C849.071 784.699 849.197 785.229 849.197 785.831C849.197 785.869 849.193 785.911 849.186 785.957V786.083H844.138C844.165 786.452 844.261 786.784 844.427 787.078C844.633 787.421 844.915 787.691 845.273 787.89C845.639 788.08 846.055 788.176 846.521 788.176C846.886 788.176 847.226 788.111 847.538 787.981C847.858 787.852 848.134 787.654 848.362 787.387L848.819 787.913C848.552 788.233 848.217 788.477 847.812 788.645C847.416 788.812 846.977 788.896 846.497 788.896C845.872 788.896 845.323 788.767 844.851 788.508C844.378 788.241 844.007 787.878 843.74 787.421C843.473 786.956 843.341 786.426 843.341 785.831C843.341 785.236 843.466 784.71 843.718 784.252C843.977 783.795 844.328 783.436 844.771 783.177C845.22 782.91 845.724 782.776 846.28 782.776ZM606.598 782.833H608.428V783.508H606.598V787.1C606.598 787.45 606.685 787.721 606.86 787.912C607.043 788.103 607.303 788.198 607.639 788.198C607.997 788.198 608.294 788.095 608.53 787.89L608.816 788.473C608.656 788.617 608.462 788.724 608.233 788.793C608.012 788.862 607.783 788.896 607.547 788.896C606.983 788.895 606.548 788.743 606.243 788.438C605.938 788.133 605.785 787.702 605.785 787.146V783.508H604.71V782.833H605.785V781.507H606.598V782.833ZM701.451 782.833H703.281V783.508H701.451V787.1C701.451 787.45 701.539 787.721 701.714 787.912C701.897 788.103 702.157 788.198 702.492 788.198C702.851 788.198 703.148 788.096 703.385 787.89L703.67 788.473C703.51 788.617 703.316 788.724 703.087 788.793C702.866 788.862 702.637 788.896 702.4 788.896C701.836 788.895 701.402 788.743 701.097 788.438C700.792 788.133 700.639 787.702 700.639 787.146V783.508H699.563V782.833H700.639V781.507H701.451V782.833ZM804.437 783.964C804.671 783.608 804.964 783.329 805.317 783.13C805.737 782.894 806.206 782.775 806.725 782.775C807.296 782.775 807.807 782.905 808.257 783.164C808.714 783.416 809.073 783.771 809.332 784.229C809.591 784.686 809.722 785.22 809.722 785.83C809.722 786.432 809.591 786.967 809.332 787.432C809.073 787.889 808.714 788.248 808.257 788.507C807.807 788.766 807.296 788.895 806.725 788.896C806.198 788.896 805.725 788.777 805.306 788.541C804.937 788.326 804.636 788.029 804.402 787.648V788.838H803.625V780.351H804.437V783.964ZM828.323 782.833H830.153V783.508H828.323V787.1C828.323 787.45 828.411 787.721 828.586 787.912C828.769 788.103 829.029 788.197 829.364 788.197C829.723 788.197 830.02 788.095 830.257 787.889L830.542 788.473C830.382 788.617 830.188 788.723 829.959 788.792C829.738 788.861 829.509 788.896 829.272 788.896C828.708 788.895 828.274 788.742 827.969 788.438C827.664 788.133 827.511 787.702 827.511 787.146V783.508H826.436V782.833H827.511V781.506H828.323V782.833ZM582.894 780.296C583.122 780.296 583.344 780.327 583.558 780.388C583.771 780.449 583.95 780.543 584.095 780.673L583.82 781.279C583.706 781.18 583.572 781.108 583.42 781.062C583.268 781.009 583.104 780.982 582.929 780.982C582.586 780.982 582.322 781.077 582.139 781.268C581.956 781.458 581.864 781.741 581.864 782.114V782.835H583.718V783.51H581.888V788.841H581.075V783.51H580V782.835H581.075V782.08C581.075 781.547 581.232 781.116 581.544 780.788C581.857 780.46 582.307 780.296 582.894 780.296ZM635.21 782.777C635.698 782.777 636.121 782.873 636.479 783.063C636.845 783.246 637.128 783.528 637.326 783.909C637.532 784.29 637.635 784.771 637.635 785.351V788.84H636.822V785.431C636.822 784.798 636.67 784.321 636.365 784.001C636.068 783.673 635.645 783.509 635.096 783.509C634.684 783.509 634.326 783.597 634.021 783.772C633.723 783.94 633.49 784.188 633.322 784.516C633.162 784.836 633.082 785.225 633.082 785.683V788.84H632.271V785.431C632.27 784.798 632.117 784.321 631.812 784.001C631.507 783.673 631.08 783.509 630.531 783.509C630.127 783.509 629.773 783.597 629.468 783.772C629.163 783.94 628.927 784.188 628.759 784.516C628.599 784.836 628.519 785.225 628.519 785.683V788.84H627.706V782.834H628.483V783.921C628.665 783.605 628.917 783.349 629.239 783.154C629.651 782.903 630.135 782.777 630.691 782.777C631.279 782.777 631.779 782.926 632.19 783.224C632.477 783.425 632.691 783.7 632.837 784.046C633.018 783.724 633.271 783.453 633.597 783.234C634.047 782.929 634.585 782.777 635.21 782.777ZM649.193 782.777C649.681 782.777 650.109 782.873 650.475 783.063C650.848 783.246 651.138 783.528 651.344 783.909C651.557 784.29 651.664 784.771 651.664 785.351V788.84H650.852V785.431C650.852 784.798 650.691 784.321 650.371 784.001C650.058 783.673 649.616 783.509 649.044 783.509C648.617 783.509 648.243 783.597 647.923 783.772C647.61 783.94 647.367 784.188 647.191 784.516C647.024 784.836 646.939 785.225 646.939 785.683V788.84H646.127V782.834H646.905V783.93C647.095 783.61 647.357 783.351 647.694 783.154C648.114 782.903 648.614 782.777 649.193 782.777ZM681.928 782.777C682.416 782.777 682.839 782.873 683.197 783.063C683.563 783.246 683.846 783.528 684.044 783.909C684.25 784.29 684.353 784.771 684.353 785.351V788.84H683.54V785.431C683.54 784.798 683.388 784.321 683.083 784.001C682.786 783.673 682.362 783.509 681.812 783.509C681.401 783.509 681.042 783.597 680.737 783.772C680.44 783.94 680.208 784.188 680.04 784.516C679.88 784.836 679.8 785.225 679.8 785.683V788.84H678.987V785.431C678.987 784.798 678.835 784.321 678.53 784.001C678.225 783.673 677.798 783.509 677.249 783.509C676.845 783.509 676.49 783.597 676.185 783.772C675.88 783.94 675.643 784.188 675.476 784.516C675.315 784.836 675.235 785.225 675.235 785.683V788.84H674.424V782.834H675.201V783.921C675.383 783.605 675.634 783.349 675.956 783.154C676.368 782.903 676.852 782.777 677.409 782.777C677.996 782.777 678.495 782.926 678.907 783.224C679.194 783.425 679.408 783.7 679.555 784.046C679.736 783.724 679.989 783.453 680.314 783.234C680.764 782.929 681.302 782.777 681.928 782.777ZM696.066 782.777C696.554 782.777 696.982 782.873 697.348 783.063C697.721 783.246 698.012 783.528 698.218 783.909C698.431 784.29 698.538 784.771 698.538 785.351V788.84H697.726V785.431C697.726 784.798 697.565 784.321 697.245 784.001C696.932 783.673 696.49 783.509 695.918 783.509C695.491 783.509 695.117 783.597 694.797 783.772C694.484 783.94 694.241 784.188 694.065 784.516C693.898 784.836 693.813 785.225 693.813 785.683V788.84H693.001V782.834H693.779V783.93C693.969 783.61 694.231 783.351 694.568 783.154C694.988 782.903 695.487 782.777 696.066 782.777ZM597.932 788.839H597.119V782.833H597.932V788.839ZM600.774 788.839H599.962V780.351H600.774V788.839ZM603.617 788.839H602.806V782.833H603.617V788.839ZM610.879 788.839H610.067V782.833H610.879V788.839ZM732.243 782.776C732.731 782.776 733.154 782.872 733.513 783.062C733.879 783.246 734.161 783.528 734.359 783.909C734.565 784.29 734.668 784.771 734.668 785.351V788.839H733.856V785.431C733.856 784.798 733.703 784.321 733.398 784.001C733.101 783.673 732.678 783.509 732.129 783.509C731.717 783.509 731.359 783.596 731.054 783.771C730.756 783.939 730.523 784.188 730.355 784.516C730.195 784.836 730.116 785.225 730.116 785.683V788.839H729.304V785.431C729.304 784.798 729.151 784.321 728.846 784.001C728.541 783.673 728.114 783.509 727.564 783.509C727.161 783.509 726.806 783.596 726.501 783.771C726.196 783.939 725.96 784.188 725.792 784.516C725.632 784.836 725.552 785.225 725.552 785.683V788.839H724.739V782.834H725.518V783.921C725.699 783.605 725.95 783.349 726.272 783.154C726.684 782.903 727.168 782.776 727.725 782.776C728.312 782.776 728.812 782.925 729.224 783.223C729.511 783.425 729.725 783.7 729.871 784.046C730.052 783.724 730.305 783.453 730.631 783.234C731.081 782.929 731.618 782.776 732.243 782.776ZM746.383 782.776C746.871 782.776 747.298 782.872 747.664 783.062C748.038 783.246 748.327 783.528 748.533 783.909C748.747 784.29 748.854 784.771 748.854 785.351V788.839H748.041V785.431C748.041 784.798 747.882 784.321 747.562 784.001C747.249 783.673 746.806 783.509 746.234 783.509C745.807 783.509 745.434 783.596 745.113 783.771C744.801 783.939 744.556 784.188 744.381 784.516C744.213 784.836 744.13 785.225 744.13 785.683V788.839H743.317V782.834H744.095V783.931C744.284 783.61 744.547 783.351 744.885 783.154C745.304 782.903 745.803 782.776 746.383 782.776ZM759.254 785.179L761.065 782.834H761.958L759.695 785.754L762.096 788.839H761.169L759.252 786.326L757.337 788.839H756.422L758.8 785.753L756.536 782.834H757.451L759.254 785.179ZM781.066 782.776C781.554 782.776 781.978 782.872 782.336 783.062C782.702 783.246 782.984 783.528 783.183 783.909C783.388 784.29 783.491 784.771 783.491 785.351V788.839H782.679V785.431C782.679 784.798 782.527 784.321 782.222 784.001C781.924 783.673 781.501 783.509 780.952 783.509C780.541 783.509 780.182 783.596 779.877 783.771C779.58 783.939 779.346 784.188 779.179 784.516C779.019 784.836 778.938 785.225 778.938 785.683V788.839H778.127V785.431C778.127 784.798 777.974 784.321 777.669 784.001C777.364 783.673 776.937 783.509 776.388 783.509C775.984 783.509 775.629 783.596 775.324 783.771C775.019 783.939 774.783 784.188 774.615 784.516C774.455 784.836 774.375 785.225 774.375 785.683V788.839H773.562V782.834H774.34V783.921C774.521 783.605 774.772 783.349 775.095 783.154C775.507 782.903 775.991 782.776 776.548 782.776C777.135 782.776 777.635 782.925 778.047 783.223C778.334 783.424 778.547 783.7 778.693 784.046C778.874 783.724 779.128 783.453 779.453 783.234C779.903 782.929 780.441 782.776 781.066 782.776ZM840.117 787.951L842.398 782.834H843.199L840.522 788.839H839.688L837.022 782.834H837.869L840.117 787.951ZM764.03 783.871C764.217 783.577 764.469 783.338 764.786 783.153C765.206 782.902 765.705 782.775 766.284 782.775C766.772 782.775 767.199 782.871 767.565 783.062C767.939 783.245 768.229 783.527 768.435 783.908C768.648 784.289 768.755 784.77 768.755 785.35V788.838H767.942V785.43C767.942 784.797 767.782 784.32 767.462 784C767.149 783.672 766.708 783.508 766.136 783.508C765.709 783.508 765.335 783.595 765.015 783.771C764.702 783.938 764.458 784.187 764.282 784.515C764.115 784.835 764.03 785.223 764.03 785.681V788.838H763.219V780.351H764.03V783.871ZM771.532 788.838H770.72V782.833H771.532V788.838ZM786.277 788.838H785.465V782.833H786.277V788.838ZM791.886 788.838H791.073V782.833H791.886V788.838ZM821.545 786.105L825.137 782.833H826.132L823.568 785.285L826.384 788.838H825.389L822.962 785.813L821.545 787.124V788.838H820.733V780.351H821.545V786.105ZM586.315 786.049C585.736 786.049 585.331 786.152 585.103 786.357C584.881 786.563 584.771 786.819 584.771 787.124C584.771 787.467 584.904 787.741 585.171 787.947C585.438 788.153 585.812 788.256 586.292 788.256C586.75 788.256 587.143 788.153 587.471 787.947C587.806 787.734 588.05 787.429 588.202 787.032V786.049H586.315ZM641.45 786.049C640.871 786.049 640.467 786.152 640.238 786.357C640.017 786.563 639.906 786.819 639.906 787.124C639.906 787.467 640.04 787.741 640.307 787.947C640.574 788.153 640.947 788.256 641.428 788.256C641.885 788.256 642.278 788.153 642.605 787.947C642.941 787.734 643.185 787.429 643.338 787.032V786.049H641.45ZM655.47 786.049C654.89 786.049 654.487 786.152 654.258 786.357C654.037 786.563 653.926 786.819 653.926 787.124C653.926 787.467 654.059 787.741 654.326 787.947C654.593 788.153 654.967 788.256 655.447 788.256C655.905 788.256 656.297 788.153 656.625 787.947C656.961 787.734 657.205 787.429 657.357 787.032V786.049H655.47ZM752.66 786.048C752.081 786.048 751.676 786.152 751.447 786.357C751.226 786.563 751.115 786.818 751.115 787.123C751.115 787.466 751.249 787.741 751.516 787.947C751.782 788.153 752.156 788.256 752.637 788.256C753.094 788.256 753.488 788.153 753.815 787.947C754.151 787.734 754.394 787.429 754.547 787.032V786.048H752.66ZM799.141 783.486C798.714 783.486 798.333 783.585 797.997 783.783C797.662 783.974 797.395 784.245 797.196 784.596C796.998 784.946 796.899 785.358 796.899 785.831C796.899 786.296 796.998 786.708 797.196 787.066C797.395 787.417 797.662 787.691 797.997 787.89C798.333 788.08 798.71 788.176 799.13 788.176C799.564 788.176 799.95 788.08 800.285 787.89C800.621 787.691 800.884 787.417 801.074 787.066C801.272 786.708 801.371 786.296 801.371 785.831C801.371 785.358 801.272 784.946 801.074 784.596C800.884 784.245 800.621 783.974 800.285 783.783C799.95 783.585 799.568 783.486 799.141 783.486ZM806.667 783.484C806.24 783.484 805.855 783.584 805.512 783.782C805.176 783.973 804.909 784.244 804.711 784.595C804.52 784.945 804.425 785.357 804.425 785.83C804.425 786.295 804.52 786.707 804.711 787.065C804.909 787.416 805.176 787.69 805.512 787.889C805.855 788.079 806.24 788.175 806.667 788.175C807.094 788.175 807.476 788.079 807.812 787.889C808.147 787.69 808.414 787.416 808.612 787.065C808.811 786.707 808.909 786.295 808.909 785.83C808.909 785.357 808.81 784.945 808.612 784.595C808.414 784.244 808.147 783.973 807.812 783.782C807.476 783.584 807.094 783.484 806.667 783.484ZM662.641 783.486C662.206 783.486 661.814 783.582 661.463 783.772C661.12 783.955 660.849 784.211 660.65 784.539C660.46 784.867 660.364 785.248 660.364 785.683C660.364 786.117 660.46 786.502 660.65 786.838C660.849 787.166 661.12 787.426 661.463 787.616C661.814 787.799 662.206 787.891 662.641 787.891C663.083 787.891 663.476 787.799 663.819 787.616C664.162 787.426 664.434 787.166 664.632 786.838C664.83 786.502 664.929 786.117 664.929 785.683C664.929 785.248 664.83 784.867 664.632 784.539C664.434 784.211 664.162 783.955 663.819 783.772C663.476 783.582 663.083 783.486 662.641 783.486ZM615.244 783.475C614.832 783.475 614.463 783.57 614.135 783.761C613.807 783.951 613.551 784.218 613.368 784.562C613.222 784.835 613.135 785.14 613.105 785.477H617.383C617.354 785.139 617.263 784.834 617.108 784.562C616.925 784.218 616.674 783.951 616.354 783.761C616.033 783.57 615.663 783.475 615.244 783.475ZM670.082 783.475C669.67 783.475 669.3 783.57 668.973 783.761C668.645 783.951 668.389 784.218 668.206 784.562C668.06 784.835 667.974 785.14 667.944 785.477H672.222C672.193 785.139 672.102 784.834 671.947 784.562C671.764 784.218 671.513 783.951 671.192 783.761C670.872 783.57 670.501 783.475 670.082 783.475ZM688.659 783.475C688.247 783.475 687.878 783.57 687.55 783.761C687.222 783.951 686.966 784.218 686.783 784.562C686.637 784.835 686.55 785.14 686.521 785.477H690.799C690.77 785.139 690.678 784.834 690.523 784.562C690.34 784.218 690.089 783.951 689.769 783.761C689.448 783.57 689.079 783.475 688.659 783.475ZM738.976 783.475C738.564 783.475 738.194 783.57 737.866 783.761C737.538 783.951 737.283 784.218 737.1 784.562C736.954 784.835 736.867 785.14 736.838 785.477H741.115C741.086 785.139 740.995 784.834 740.84 784.562C740.657 784.218 740.405 783.951 740.085 783.761C739.765 783.57 739.395 783.475 738.976 783.475ZM816.393 783.475C815.981 783.475 815.61 783.57 815.282 783.761C814.954 783.951 814.7 784.218 814.517 784.562C814.371 784.835 814.283 785.14 814.254 785.477H818.531C818.502 785.139 818.412 784.834 818.257 784.562C818.074 784.218 817.822 783.951 817.502 783.761C817.182 783.57 816.812 783.475 816.393 783.475ZM833.913 783.475C833.501 783.475 833.132 783.57 832.804 783.761C832.476 783.951 832.22 784.218 832.037 784.562C831.891 784.835 831.805 785.14 831.775 785.477H836.053C836.024 785.139 835.932 784.834 835.777 784.562C835.594 784.218 835.343 783.951 835.022 783.761C834.702 783.57 834.332 783.475 833.913 783.475ZM846.28 783.475C845.869 783.475 845.499 783.57 845.171 783.761C844.843 783.951 844.587 784.218 844.404 784.562C844.258 784.835 844.171 785.14 844.142 785.477H848.419C848.39 785.139 848.299 784.834 848.145 784.562C847.962 784.218 847.71 783.951 847.39 783.761C847.069 783.57 846.7 783.475 846.28 783.475ZM597.531 780.351C597.699 780.351 597.84 780.404 597.954 780.511C598.068 780.617 598.126 780.751 598.126 780.911C598.126 781.079 598.068 781.221 597.954 781.335C597.847 781.449 597.706 781.506 597.531 781.506C597.364 781.506 597.223 781.449 597.108 781.335C596.994 781.221 596.937 781.083 596.937 780.923C596.937 780.763 596.994 780.629 597.108 780.522C597.223 780.408 597.364 780.351 597.531 780.351ZM603.217 780.351C603.384 780.351 603.526 780.404 603.641 780.511C603.755 780.617 603.812 780.751 603.812 780.911C603.812 781.079 603.755 781.221 603.641 781.335C603.534 781.449 603.392 781.506 603.217 781.506C603.049 781.506 602.908 781.449 602.794 781.335C602.68 781.221 602.622 781.083 602.622 780.923C602.622 780.763 602.68 780.629 602.794 780.522C602.908 780.408 603.049 780.351 603.217 780.351ZM610.479 780.351C610.646 780.351 610.788 780.404 610.902 780.511C611.017 780.617 611.073 780.751 611.073 780.911C611.073 781.079 611.017 781.221 610.902 781.335C610.796 781.449 610.654 781.506 610.479 781.506C610.311 781.506 610.17 781.449 610.056 781.335C609.941 781.221 609.884 781.083 609.884 780.923C609.884 780.763 609.941 780.629 610.056 780.522C610.17 780.408 610.311 780.351 610.479 780.351ZM771.132 780.351C771.299 780.351 771.44 780.404 771.555 780.511C771.669 780.618 771.727 780.751 771.727 780.911C771.727 781.079 771.669 781.22 771.555 781.334C771.448 781.448 771.307 781.506 771.132 781.506C770.964 781.506 770.822 781.448 770.708 781.334C770.594 781.22 770.537 781.083 770.537 780.923C770.537 780.763 770.594 780.629 770.708 780.522C770.822 780.408 770.964 780.351 771.132 780.351ZM785.877 780.351C786.045 780.351 786.185 780.404 786.3 780.511C786.414 780.618 786.472 780.751 786.472 780.911C786.472 781.079 786.414 781.22 786.3 781.334C786.193 781.448 786.052 781.506 785.877 781.506C785.709 781.506 785.568 781.448 785.454 781.334C785.34 781.22 785.282 781.083 785.282 780.923C785.282 780.763 785.34 780.629 785.454 780.522C785.568 780.408 785.709 780.351 785.877 780.351ZM791.485 780.351C791.653 780.351 791.794 780.404 791.908 780.511C792.023 780.618 792.08 780.751 792.08 780.911C792.08 781.079 792.023 781.22 791.908 781.334C791.801 781.448 791.661 781.506 791.485 781.506C791.318 781.506 791.177 781.448 791.062 781.334C790.948 781.22 790.891 781.083 790.891 780.923C790.891 780.763 790.948 780.629 791.062 780.522C791.177 780.408 791.318 780.351 791.485 780.351ZM811.617 780.351C811.785 780.351 811.927 780.404 812.041 780.511C812.155 780.617 812.212 780.751 812.212 780.911C812.212 781.079 812.155 781.22 812.041 781.334C811.934 781.448 811.793 781.506 811.617 781.506C811.449 781.506 811.309 781.448 811.194 781.334C811.08 781.22 811.023 781.083 811.022 780.923C811.022 780.763 811.08 780.629 811.194 780.522C811.309 780.408 811.449 780.351 811.617 780.351ZM594.763 735.392C595.939 735.392 597.116 735.489 598.26 735.686C599.404 735.882 600.531 736.175 601.626 736.584C602.721 736.976 603.668 737.385 604.469 737.81C605.302 738.267 606.005 738.741 606.561 739.248L606.609 739.297C607.77 740.506 608.358 741.716 608.358 742.876C608.358 743.873 607.982 744.722 607.23 745.474C606.887 745.817 606.479 746.095 606.038 746.308C605.597 746.504 605.123 746.635 604.633 746.684L604.24 746.65C603.766 746.52 603.194 746.323 602.557 746.029C601.952 745.752 601.299 745.408 600.58 745C599.812 744.559 599.191 744.216 598.75 743.971C598.243 743.693 597.802 743.464 597.442 743.301C597.148 743.17 596.821 743.056 596.494 742.99C596.151 742.925 595.776 742.876 595.367 742.876C593.553 742.876 592.196 743.219 591.281 743.889C591.069 744.052 590.873 744.248 590.71 744.444C590.547 744.624 590.415 744.821 590.317 745.017V745.049C590.203 745.212 590.138 745.392 590.072 745.588C590.023 745.768 590.008 745.948 589.991 746.128C590.073 746.504 590.203 746.847 590.383 747.174C590.579 747.533 590.84 747.844 591.167 748.138C591.526 748.497 591.936 748.807 592.377 749.085C592.818 749.379 593.292 749.641 593.782 749.87C594.125 750.017 594.468 750.164 594.795 750.295C595.187 750.442 595.596 750.605 596.021 750.752H596.069C596.314 750.883 596.577 750.981 596.854 751.079L597.688 751.373C598.357 751.602 598.995 751.831 599.6 752.043C600.139 752.239 600.613 752.419 601.021 752.582C602.427 753.138 603.636 753.775 604.665 754.445C605.727 755.148 606.593 755.9 607.247 756.717C607.917 757.566 608.423 758.498 608.767 759.511C609.093 760.524 609.273 761.619 609.273 762.796C609.273 763.776 609.126 764.756 608.832 765.704C608.554 766.652 608.113 767.567 607.541 768.482C606.969 769.381 606.267 770.198 605.434 770.934C604.617 771.636 603.668 772.257 602.59 772.796C602.051 773.057 601.462 773.303 600.857 773.516C600.253 773.728 599.632 773.908 598.995 774.055C598.341 774.202 597.638 774.316 596.919 774.397C596.2 774.479 595.481 774.512 594.746 774.512C592.262 774.512 589.975 774.153 587.899 773.45C585.841 772.731 583.945 771.669 582.262 770.247L582.277 770.23C581.689 769.822 581.199 769.299 580.84 768.679C580.48 768.058 580.268 767.339 580.153 766.538V766.407C580.153 765.901 580.235 765.426 580.415 764.969C580.595 764.511 580.873 764.103 581.216 763.743C581.575 763.367 581.984 763.09 582.441 762.894C582.899 762.698 583.389 762.6 583.912 762.6C584.288 762.6 584.68 762.665 585.072 762.779C585.448 762.877 585.808 763.04 586.167 763.236C586.477 763.383 586.82 763.58 587.196 763.842C587.588 764.087 588.014 764.38 588.455 764.707C588.863 764.985 589.19 765.23 589.468 765.394C589.746 765.573 589.958 765.688 590.105 765.753L590.171 765.786C590.481 765.949 590.808 766.113 591.184 766.26C591.543 766.407 591.903 766.538 592.278 766.636C592.638 766.75 593.014 766.832 593.406 766.881C593.798 766.93 594.207 766.963 594.632 766.963C595.498 766.963 596.315 766.865 597.066 766.701C597.818 766.521 598.521 766.26 599.19 765.917C599.762 765.623 600.171 765.263 600.433 764.822C600.694 764.397 600.825 763.874 600.825 763.236C600.825 762.076 600.09 761.063 598.619 760.197C598.194 759.919 597.557 759.592 596.707 759.2C595.857 758.808 594.811 758.367 593.586 757.877C592.851 757.599 592.181 757.321 591.576 757.076C591.004 756.847 590.563 756.651 590.236 756.504C589.779 756.308 589.337 756.096 588.896 755.899C588.454 755.687 588.046 755.491 587.687 755.295C586.935 754.903 586.216 754.429 585.529 753.873C584.876 753.334 584.255 752.713 583.684 752.011C583.063 751.259 582.588 750.426 582.277 749.494C581.967 748.579 581.804 747.582 581.804 746.52C581.804 745.458 581.935 744.543 582.213 743.611C582.491 742.68 582.915 741.797 583.454 740.964C584.01 740.13 584.664 739.378 585.448 738.725C586.216 738.071 587.099 737.483 588.079 736.993C588.618 736.732 589.141 736.486 589.664 736.307C590.203 736.111 590.743 735.947 591.266 735.8C591.821 735.653 592.376 735.555 592.948 735.489C593.537 735.424 594.142 735.392 594.763 735.392ZM812.41 719.721C812.966 719.721 813.538 719.802 814.061 719.981C814.583 720.161 815.041 720.423 815.449 720.766C815.907 721.141 816.234 721.616 816.463 722.155C816.659 722.662 816.773 723.234 816.773 723.871V746.748L829.34 736.715C829.797 736.323 830.32 736.029 830.859 735.816C831.431 735.604 832.019 735.489 832.624 735.489C833.18 735.489 833.703 735.587 834.177 735.783C834.667 735.996 835.092 736.29 835.451 736.683C835.794 737.042 836.055 737.467 836.219 737.94C836.382 738.398 836.464 738.888 836.464 739.411C836.464 739.999 836.317 740.572 836.039 741.095C835.761 741.585 835.369 742.042 834.847 742.418L821.397 752.501L837.053 767.158C837.576 767.665 837.967 768.237 838.245 768.874C838.507 769.495 838.638 770.181 838.638 770.9C838.638 771.391 838.539 771.849 838.359 772.29C838.18 772.715 837.902 773.107 837.543 773.45C837.183 773.793 836.758 774.055 836.284 774.234C835.827 774.398 835.32 774.496 834.781 774.496C834.095 774.496 833.392 774.332 832.673 773.989C832.036 773.679 831.399 773.238 830.745 772.649L830.712 772.616L816.74 758.824V770.264C816.74 770.885 816.625 771.456 816.413 771.963C816.184 772.502 815.858 772.96 815.4 773.368C814.976 773.744 814.502 774.038 813.995 774.218C813.489 774.414 812.949 774.512 812.394 774.512C811.805 774.512 811.266 774.414 810.743 774.201C810.237 774.005 809.763 773.695 809.354 773.303C808.93 772.927 808.619 772.469 808.406 771.946C808.21 771.44 808.096 770.884 808.096 770.264V723.74H808.129C808.129 722.482 808.569 721.501 809.436 720.766C809.844 720.422 810.302 720.161 810.809 719.981C811.315 719.818 811.855 719.721 812.41 719.721ZM869.669 735.375C870.241 735.375 870.781 735.474 871.287 735.653C871.794 735.833 872.251 736.11 872.676 736.47C873.117 736.862 873.461 737.319 873.689 737.875C873.902 738.382 874 738.954 874 739.575V759.331C874 761.995 873.444 764.446 872.333 766.733C871.761 767.91 871.009 768.972 870.078 769.92C869.163 770.851 868.084 771.685 866.826 772.388C865.568 773.09 864.163 773.63 862.61 773.989C861.074 774.332 859.407 774.512 857.626 774.512C855.845 774.512 854.341 774.333 852.887 774.006C851.4 773.663 850.043 773.139 848.834 772.437C847.625 771.734 846.563 770.917 845.664 769.985C844.765 769.054 844.013 767.992 843.441 766.815C842.87 765.639 842.428 764.446 842.15 763.221C841.873 761.979 841.726 760.688 841.726 759.348V739.591L841.775 739.575C841.775 738.366 842.183 737.353 843.017 736.568C843.834 735.768 844.847 735.375 846.04 735.375C846.612 735.375 847.152 735.474 847.658 735.653C848.165 735.833 848.638 736.11 849.047 736.47C849.488 736.862 849.831 737.32 850.06 737.875C850.272 738.382 850.37 738.954 850.37 739.575V759.2C850.37 760.442 850.534 761.553 850.86 762.518C851.171 763.449 851.645 764.266 852.266 764.952C852.854 765.622 853.589 766.113 854.472 766.439C855.387 766.799 856.498 766.963 857.789 766.963C860.387 766.963 862.3 766.342 863.525 765.1C864.783 763.825 865.404 761.864 865.404 759.185V739.575C865.404 738.366 865.829 737.353 866.646 736.568C867.463 735.768 868.476 735.375 869.669 735.375ZM658.591 719.867C659.13 719.867 659.653 719.949 660.144 720.112C660.634 720.276 661.075 720.521 661.483 720.848C661.941 721.207 662.301 721.681 662.529 722.236C662.742 722.759 662.855 723.332 662.855 723.985V735.768H664.294C664.866 735.768 665.405 735.849 665.879 736.028C666.402 736.224 666.843 736.503 667.219 736.879C667.562 737.238 667.823 737.646 668.003 738.12C668.166 738.578 668.265 739.069 668.265 739.575C668.265 740.049 668.183 740.506 668.003 740.931C667.84 741.355 667.579 741.765 667.252 742.124C666.909 742.5 666.5 742.794 666.042 742.974C665.585 743.17 665.111 743.252 664.588 743.252H662.855V770.378C662.855 770.95 662.742 771.505 662.529 772.012C662.301 772.518 661.973 772.976 661.532 773.368C661.107 773.744 660.633 774.038 660.11 774.218C659.604 774.397 659.048 774.496 658.46 774.496C657.937 774.496 657.431 774.397 656.957 774.218C656.5 774.038 656.075 773.76 655.683 773.385C655.274 772.993 654.979 772.519 654.767 771.979C654.587 771.457 654.489 770.884 654.489 770.279V743.268L654.506 743.252H653.084C651.907 743.252 650.943 742.908 650.24 742.222C649.897 741.895 649.619 741.519 649.391 741.095C649.178 740.67 649.031 740.228 648.966 739.738V739.444C649.08 738.268 649.505 737.352 650.208 736.715C650.927 736.078 651.875 735.751 653.084 735.751H654.506V723.806C654.506 723.217 654.604 722.694 654.816 722.204C655.029 721.698 655.339 721.257 655.764 720.881L655.812 720.848C655.992 720.701 656.189 720.57 656.385 720.456C656.581 720.342 656.793 720.243 657.038 720.161C657.283 720.063 657.529 719.998 657.807 719.949C658.068 719.9 658.329 719.867 658.591 719.867ZM686.452 735.375C688.152 735.375 689.688 735.604 691.191 736.062C692.678 736.519 694.083 737.189 695.391 738.104C696.682 739.003 697.842 740.049 698.822 741.226C699.819 742.402 700.669 743.726 701.372 745.213C702.075 746.667 702.597 748.17 702.94 749.689C703.3 751.225 703.464 752.778 703.464 754.363C703.464 755.687 703.055 756.7 702.238 757.419C701.454 758.089 700.375 758.433 698.97 758.433H677.693C677.742 759.054 677.841 759.642 677.988 760.197C678.201 761.08 678.543 761.881 678.984 762.616C679.425 763.351 679.949 763.988 680.521 764.527C681.092 765.067 681.747 765.524 682.449 765.884C683.92 766.603 685.571 766.979 687.417 766.979C689.035 766.978 690.587 766.701 692.074 766.129C693.577 765.557 694.999 764.707 696.355 763.563L696.437 763.515C697.025 763.106 697.532 762.796 697.94 762.6C698.48 762.338 698.954 762.207 699.362 762.207C699.869 762.207 700.343 762.305 700.768 762.518C701.209 762.73 701.568 763.041 701.862 763.433C702.107 763.792 702.319 764.168 702.45 764.593C702.581 765.001 702.646 765.443 702.646 765.9C702.646 766.423 702.548 766.946 702.336 767.437C702.14 767.91 701.862 768.368 701.47 768.793V768.825C700.734 769.593 699.868 770.312 698.839 770.982C697.842 771.636 696.682 772.24 695.391 772.796C694.083 773.368 692.743 773.794 691.354 774.071C689.949 774.349 688.527 774.496 687.073 774.496C685.537 774.496 684.083 774.349 682.743 774.055C681.371 773.761 680.096 773.303 678.936 772.715C677.775 772.127 676.729 771.44 675.798 770.672C674.85 769.888 674.017 768.989 673.281 768.009C672.579 767.045 671.974 766.048 671.451 764.985C670.928 763.94 670.503 762.844 670.16 761.7C668.134 754.837 669.376 747.01 674.033 741.389H674.05C675.03 740.196 676.174 739.134 677.448 738.202C678.739 737.254 680.145 736.552 681.665 736.078C683.168 735.604 684.753 735.375 686.452 735.375ZM754.104 735.358C754.676 735.358 755.216 735.457 755.723 735.637C756.229 735.816 756.703 736.094 757.111 736.453C757.553 736.845 757.896 737.304 758.125 737.859C758.337 738.366 758.451 738.938 758.451 739.559V770.247C758.451 770.868 758.337 771.44 758.125 771.946C757.896 772.486 757.569 772.959 757.111 773.352C756.686 773.727 756.213 774.005 755.706 774.201C755.199 774.397 754.66 774.496 754.104 774.496C753.549 774.496 752.977 774.398 752.454 774.186C751.948 773.989 751.474 773.678 751.065 773.286C750.641 772.894 750.313 772.453 750.117 771.931C749.905 771.424 749.807 770.868 749.807 770.247V739.705C749.807 739.084 749.905 738.529 750.117 738.006C750.33 737.467 750.641 736.977 751.082 736.568C751.491 736.176 751.964 735.881 752.471 735.669C752.977 735.473 753.533 735.358 754.104 735.358ZM618.898 719.573C619.437 719.573 619.96 719.671 620.45 719.851C620.94 720.03 621.382 720.308 621.774 720.668C622.199 721.06 622.542 721.534 622.755 722.09C622.951 722.613 623.049 723.201 623.049 723.838V738.414C623.817 737.76 624.667 737.222 625.582 736.748C627.445 735.8 629.471 735.343 631.677 735.343C632.968 735.343 634.21 735.506 635.419 735.833C636.612 736.16 637.756 736.65 638.834 737.304C639.912 737.957 640.878 738.725 641.711 739.607C642.561 740.49 643.279 741.503 643.884 742.614C644.472 743.742 644.929 744.886 645.224 746.095C645.518 747.288 645.665 748.513 645.665 749.771V770.23C645.665 770.851 645.567 771.424 645.354 771.931C645.142 772.47 644.815 772.944 644.391 773.336C643.982 773.712 643.541 774.006 643.051 774.186C642.561 774.382 642.037 774.479 641.515 774.479C640.992 774.479 640.436 774.381 639.945 774.169C639.455 773.973 639.014 773.663 638.622 773.271C638.214 772.895 637.919 772.437 637.707 771.914C637.511 771.407 637.413 770.851 637.413 770.23V750.605C637.413 749.445 637.249 748.399 636.938 747.468C636.628 746.553 636.138 745.736 635.501 745.017C635.174 744.625 634.831 744.298 634.472 744.036C634.112 743.775 633.736 743.546 633.327 743.366C632.919 743.186 632.461 743.055 631.987 742.957C631.497 742.875 630.941 742.826 630.337 742.826C629.683 742.826 629.046 742.892 628.458 743.039C627.853 743.186 627.265 743.398 626.709 743.692C626.17 743.97 625.68 744.314 625.255 744.723C624.814 745.147 624.421 745.654 624.078 746.226C623.735 746.797 623.474 747.435 623.311 748.138C623.147 748.84 623.049 749.625 623.049 750.475V770.23C623.049 770.851 622.951 771.424 622.738 771.931C622.526 772.47 622.199 772.944 621.774 773.336C621.366 773.712 620.908 773.989 620.435 774.186C619.944 774.382 619.421 774.479 618.898 774.479C618.343 774.479 617.819 774.381 617.329 774.169C616.839 773.973 616.398 773.663 616.006 773.271C615.597 772.878 615.287 772.437 615.091 771.914C614.895 771.407 614.797 770.851 614.797 770.23V723.854C614.797 723.234 614.895 722.678 615.091 722.155C615.287 721.616 615.597 721.142 616.006 720.717L616.038 720.685C616.447 720.309 616.888 720.047 617.362 719.851C617.836 719.671 618.359 719.573 618.898 719.573ZM782.228 735.326C783.437 735.326 784.581 735.424 785.644 735.637C786.722 735.849 787.703 736.159 788.585 736.584C789.467 736.992 790.349 737.533 791.231 738.219C791.423 738.363 791.615 738.522 791.792 738.682C791.841 738.382 791.921 738.112 792.032 737.843C792.245 737.336 792.539 736.894 792.947 736.519C793.339 736.143 793.798 735.849 794.288 735.669C794.778 735.473 795.318 735.375 795.873 735.375C796.429 735.375 796.951 735.474 797.441 735.653C797.915 735.833 798.373 736.111 798.781 736.486C799.206 736.878 799.533 737.352 799.729 737.875C799.926 738.382 800.023 738.954 800.023 739.559V770.247C800.023 770.852 799.926 771.424 799.746 771.931C799.55 772.486 799.239 772.96 798.83 773.336C798.438 773.712 797.981 773.99 797.475 774.186C796.968 774.382 796.445 774.463 795.873 774.463C795.35 774.463 794.827 774.365 794.337 774.186C793.863 774.006 793.421 773.744 793.029 773.401C792.604 773.042 792.261 772.584 792.049 772.077C791.885 771.701 791.787 771.293 791.738 770.852L791.542 771.031C790.741 771.75 789.876 772.372 788.944 772.895C788.013 773.417 787.049 773.81 786.068 774.071C785.055 774.333 784.009 774.463 782.963 774.463C781.28 774.463 779.663 774.267 778.11 773.858C776.558 773.466 775.087 772.861 773.698 772.061C772.309 771.244 771.051 770.263 769.956 769.136C768.861 768.008 767.913 766.701 767.129 765.214C766.345 763.743 765.74 762.158 765.348 760.442C764.955 758.743 764.759 756.945 764.759 755.05C764.759 752.942 764.972 750.981 765.396 749.167C765.821 747.353 766.475 745.686 767.341 744.199C768.207 742.712 769.188 741.422 770.299 740.311C771.41 739.199 772.668 738.268 774.041 737.532C775.397 736.797 776.754 736.258 778.094 735.882C779.466 735.506 780.855 735.326 782.228 735.326ZM726.586 742.859C724.331 742.859 722.534 743.415 721.178 744.51C720.475 745.082 719.886 745.735 719.38 746.454C718.89 747.173 718.481 747.974 718.187 748.856C718.023 749.363 717.86 749.837 717.729 750.327C717.599 750.817 717.484 751.308 717.402 751.814C717.321 752.272 717.255 752.762 717.206 753.285C717.157 753.775 717.142 754.298 717.142 754.821C717.142 758.596 717.991 761.619 719.674 763.874C720.099 764.413 720.54 764.904 721.014 765.312C721.471 765.721 721.962 766.064 722.484 766.325C722.991 766.587 723.514 766.782 724.069 766.913C724.592 767.044 725.148 767.109 725.753 767.109L726.146 767.012L726.439 766.979C727.273 766.978 728.073 766.831 728.792 766.554C729.168 766.407 729.544 766.227 729.903 766.015C730.279 765.802 730.622 765.573 730.949 765.328C731.57 764.838 732.142 764.25 732.616 763.563C733.106 762.861 733.515 762.06 733.858 761.161C734.038 760.704 734.201 760.214 734.332 759.724C734.479 759.234 734.593 758.711 734.691 758.204C734.789 757.649 734.871 757.125 734.92 756.603C734.953 756.096 734.985 755.54 734.985 754.952L735.002 754.936C735.002 753.857 734.921 752.827 734.773 751.847C734.626 750.866 734.381 749.902 734.055 748.954C733.744 748.039 733.352 747.223 732.878 746.487C732.404 745.768 731.848 745.131 731.194 744.559C730.868 744.281 730.524 744.035 730.165 743.807C729.822 743.594 729.463 743.415 729.087 743.268C728.728 743.121 728.335 743.022 727.927 742.957C727.502 742.892 727.06 742.859 726.586 742.859ZM782.506 742.843C781.771 742.843 781.1 742.909 780.463 743.056C779.826 743.186 779.254 743.399 778.715 743.66C778.176 743.938 777.668 744.281 777.211 744.689C776.737 745.098 776.329 745.589 775.937 746.128C775.528 746.716 775.184 747.321 774.874 747.941C774.564 748.595 774.303 749.281 774.106 750C773.91 750.703 773.747 751.471 773.633 752.305C773.535 753.122 773.469 754.004 773.469 754.919L773.437 754.936C773.437 756.014 773.518 757.06 773.698 758.057C773.878 759.07 774.139 760.05 774.482 760.998C774.826 761.913 775.267 762.763 775.773 763.498C776.264 764.217 776.851 764.854 777.505 765.394C778.142 765.916 778.845 766.309 779.613 766.554C780.398 766.815 781.264 766.946 782.212 766.946C783.911 766.946 785.349 766.668 786.525 766.097C787.669 765.557 788.601 764.74 789.304 763.646C790.055 762.453 790.627 761.145 791.003 759.707C791.395 758.253 791.592 756.651 791.592 754.919C791.592 753.612 791.493 752.419 791.297 751.324C791.101 750.229 790.807 749.216 790.431 748.301C790.055 747.402 789.598 746.618 789.059 745.932C788.536 745.262 787.931 744.69 787.245 744.232C786.575 743.759 785.839 743.415 785.088 743.187C784.336 742.958 783.518 742.843 782.652 742.843H782.506ZM686.697 742.843C685.341 742.843 684.132 743.056 683.07 743.48C682.024 743.905 681.092 744.526 680.275 745.376C679.851 745.817 679.474 746.307 679.164 746.813C678.837 747.32 678.56 747.892 678.331 748.497C678.102 749.102 677.939 749.739 677.824 750.409C677.775 750.769 677.726 751.128 677.693 751.504L677.71 751.521H695.113C695.097 751.194 695.048 750.883 694.999 750.572C694.901 749.902 694.737 749.265 694.541 748.66C694.345 748.072 694.1 747.5 693.79 746.961C693.496 746.438 693.169 745.948 692.793 745.507C692.417 745.066 692.009 744.673 691.567 744.347C691.126 744.02 690.668 743.741 690.194 743.513C689.704 743.284 689.165 743.121 688.593 743.007C688.021 742.892 687.383 742.843 686.697 742.843ZM680.21 723.643C680.864 723.643 681.468 723.757 682.04 724.002C682.612 724.231 683.119 724.574 683.576 725.015C684.034 725.489 684.377 726.028 684.622 726.616C684.851 727.188 684.966 727.825 684.966 728.512C684.966 729.198 684.852 729.786 684.606 730.358C684.361 730.93 684.018 731.454 683.544 731.911C683.086 732.352 682.58 732.712 682.024 732.94C681.452 733.169 680.847 733.283 680.21 733.283C679.573 733.283 678.919 733.169 678.348 732.94C677.776 732.712 677.236 732.368 676.763 731.911C676.289 731.454 675.912 730.947 675.667 730.375C675.422 729.803 675.291 729.182 675.291 728.528L675.275 728.512C675.275 727.842 675.39 727.204 675.635 726.616C675.88 726.028 676.223 725.505 676.697 725.048C677.171 724.59 677.693 724.23 678.298 723.985C678.886 723.757 679.524 723.643 680.21 723.643ZM692.744 723.643C693.43 723.643 694.035 723.757 694.623 723.985C695.211 724.214 695.734 724.574 696.208 725.031C696.682 725.489 697.042 726.012 697.271 726.616C697.516 727.188 697.63 727.825 697.63 728.512C697.63 729.198 697.499 729.77 697.254 730.358C697.009 730.93 696.633 731.437 696.159 731.895C695.685 732.352 695.163 732.695 694.591 732.924C694.003 733.169 693.381 733.283 692.744 733.283C692.107 733.283 691.486 733.169 690.914 732.924C690.342 732.695 689.835 732.352 689.361 731.895C688.887 731.437 688.512 730.914 688.267 730.358C688.022 729.787 687.891 729.182 687.891 728.528V728.512C687.891 727.842 688.005 727.221 688.233 726.633C688.462 726.045 688.822 725.505 689.263 725.048C689.72 724.574 690.26 724.23 690.849 723.985C691.437 723.757 692.058 723.643 692.744 723.643ZM754.104 723.217C754.791 723.217 755.429 723.348 756.05 723.593C756.638 723.838 757.193 724.198 757.684 724.672C758.174 725.146 758.55 725.669 758.812 726.257C759.073 726.845 759.186 727.466 759.187 728.119C759.187 728.773 759.056 729.378 758.795 729.95C758.55 730.506 758.174 731.045 757.684 731.519C757.193 732.009 756.638 732.368 756.05 732.63C755.445 732.891 754.791 733.021 754.121 733.021H754.104C753.418 733.021 752.765 732.891 752.16 732.63C751.556 732.385 751.016 732.009 750.51 731.519C750.02 731.045 749.644 730.506 749.398 729.95C749.137 729.378 749.007 728.756 749.007 728.119C749.007 727.482 749.137 726.861 749.398 726.289C749.66 725.734 750.02 725.195 750.51 724.721C751.016 724.23 751.556 723.871 752.16 723.609C752.765 723.348 753.418 723.217 754.104 723.217Z" fill="#FAA61A"/>
<g clip-path="url(#clip0_2766_771)">
<path d="M73.1271 580.341H25.75V604.528H70.0724V626.843H25.75V654.082H74.514V677.239H0V558.045H73.1271V580.36V580.341Z" fill="#04442F"/>
<path d="M150.526 556.844C174.57 556.844 200.133 569.78 205.587 599.246H180.867C175.582 585.786 164.844 579.833 150.526 579.833C129.386 579.833 115.236 595.165 115.236 617.798C115.236 638.241 129.049 655.258 150.357 655.258C165.181 655.258 177.288 648.276 181.392 633.805H205.943C200.826 665.311 175.432 678.416 150.544 678.416C119.172 678.416 89.5239 657.299 89.5239 617.798C89.5239 578.298 119.191 556.32 150.544 556.844H150.526Z" fill="#04442F"/>
<path d="M279.934 679.274C248.055 679.274 219.25 657.82 219.25 617.627C219.25 577.434 248.749 556.148 280.458 556.148C312.168 556.148 341.142 577.602 341.142 617.627C341.142 653.889 316.085 679.274 279.934 679.274ZM280.271 655.948C298.862 655.948 315.729 643.686 315.729 617.627C315.729 591.568 299.031 579.662 280.44 579.662C261.849 579.662 244.982 592.429 244.982 617.627C244.982 642.825 261.174 655.948 280.271 655.948Z" fill="#04442F"/>
<path d="M404.054 677.066V557.872C421.108 557.703 437.975 557.872 455.03 557.872C482.822 557.872 497.478 578.82 497.478 601.304C497.478 623.787 482.298 643.369 455.03 643.369H429.636V677.085H404.073L404.054 677.066ZM455.03 621.541C465.937 621.541 473.096 612.012 473.096 600.592C473.096 589.173 466.274 580.168 455.03 580.168C446.334 580 437.807 580.168 429.111 580.168V621.541H455.03Z" fill="#04442F"/>
<path d="M588.69 580.341H541.294V604.528H585.617V626.843H541.294V654.082H590.04V677.239H515.544V558.045H588.672V580.36L588.69 580.341Z" fill="#04442F"/>
<path d="M630.801 641.985C631.307 652.881 643.245 657.486 654.846 657.486C665.415 657.486 677.691 654.921 677.691 642.509C677.691 628.881 663.035 627.701 651.603 626.84C629.958 624.968 608.124 617.648 608.124 592.956C608.124 566.56 629.77 555.496 653.477 555.496C675.817 555.496 698.999 564.856 698.999 591.589H675.142C673.774 581.892 663.729 577.792 653.496 577.792C643.264 577.792 633.218 583.24 633.218 592.432C633.218 602.99 643.62 605.368 656.064 606.734C681.289 608.943 702.953 614.56 702.953 642.491C702.953 670.422 678.572 679.277 655.052 679.782C631.194 679.782 606.475 668.026 606.475 641.985H630.857H630.801Z" fill="#04442F"/>
<path d="M711.948 580.169V558.022H800.256V580.169H768.546V677.235H743.827V580.169H711.948Z" fill="#04442F"/>
<path d="M898.478 558.21H854.156V677.236H898.478C917.107 677.236 931.537 670.347 941.376 659.751V575.714C931.5 565.099 917.088 558.191 898.478 558.191V558.21ZM898.122 654.247H879.55V581.18H898.122C919.768 581.18 931.537 598.366 931.537 617.442C931.537 636.518 920.105 654.228 898.122 654.228V654.247Z" fill="#8BC53F"/>
<path d="M995.575 558.214H951.252V677.24H995.575C1014.86 677.24 1029.61 669.845 1039.48 658.65V576.897C1029.65 565.627 1014.88 558.233 995.575 558.233V558.214ZM995.237 654.251H976.665V581.184H995.237C1016.9 581.184 1028.65 598.37 1028.65 617.446C1028.65 636.522 1017.22 654.232 995.237 654.232V654.251Z" fill="#8BC53F"/>
<path d="M1093.68 558.214C1131.69 558.214 1152.16 586.987 1152.16 617.296C1152.66 647.773 1132.22 677.24 1093.68 677.24H1049.36V558.214H1093.68ZM1093.35 654.251C1115.33 654.251 1126.76 636.541 1126.76 617.465C1126.76 598.388 1114.99 581.203 1093.35 581.203H1074.77V654.251H1093.35Z" fill="#8BC53F"/>
<path d="M674.937 155.099H477.258C394.235 155.099 326.693 222.568 326.693 305.481C326.693 388.395 394.235 455.864 477.258 455.864H532.862C527.033 447.421 523.623 437.199 523.623 426.192V413.892H477.258C417.418 413.892 368.71 365.256 368.71 305.481C368.71 245.706 417.418 197.07 477.258 197.07H555.07V391.165H597.106V197.07H674.937C734.777 197.07 783.466 245.706 783.466 305.481C783.466 365.256 734.777 413.892 674.937 413.892H628.553V426.192C628.553 437.199 625.142 447.421 619.314 455.864H674.937C757.959 455.864 825.483 388.395 825.483 305.481C825.483 222.568 757.941 155.099 674.937 155.099Z" fill="#8BC53F"/>
<path d="M481.587 349.196V426.194C481.587 436.565 483.274 446.543 486.385 455.866C498.847 493.42 534.361 520.583 576.079 520.583C617.796 520.583 653.31 493.42 665.792 455.866C668.903 446.525 670.571 436.547 670.571 426.194V349.196H481.587ZM628.553 426.194C628.553 437.202 625.142 447.423 619.314 455.866C609.85 469.588 593.995 478.593 576.097 478.593C558.2 478.593 542.345 469.588 532.881 455.866C527.052 447.423 523.642 437.202 523.642 426.194V391.168H628.572V426.194H628.553Z" fill="#8BC53F"/>
<path d="M516.651 113.109H474.615C474.615 75.2564 444.892 14.1898 407.541 9.82787C405.105 9.54706 403.306 7.39419 403.306 4.94179C403.306 2.1337 405.648 -0.13149 408.459 -0.00044601C468.58 2.69532 516.651 52.3985 516.651 113.091V113.109Z" fill="#04442F"/>
<path d="M677.56 113.109H635.524C635.543 52.3985 683.613 2.71404 743.715 -0.00044601C746.526 -0.13149 748.869 2.1337 748.869 4.94179C748.869 7.39419 747.07 9.52834 744.634 9.82787C707.283 14.1898 677.56 75.2564 677.56 113.109Z" fill="#04442F"/>
</g>
<path d="M547.945 753.62V766.678C547.945 768.505 547.856 769.486 549.995 769.352V773.363C547.098 773.987 542.909 774.21 542.909 769.798C541.706 772.472 538.943 773.942 536.09 773.942C529.45 773.809 526.375 768.684 526.375 762.578C526.598 755.314 531.545 751.481 538.809 751.615C541.973 751.659 545.093 752.417 547.945 753.62ZM541.884 762.801V757.23C540.681 756.74 539.388 756.606 538.319 756.606C534.932 756.606 532.748 758.478 532.614 762.578C532.614 765.965 534.219 768.461 537.427 768.416C540.413 768.416 541.75 766.054 541.884 762.801Z" fill="#444444"/>
<path d="M515.856 762.8V757.408C514.608 756.962 513.405 756.739 512.246 756.739C509.037 756.739 506.72 758.567 506.675 762.8C506.675 766.143 508.369 768.817 511.622 768.817C514.786 768.817 515.856 765.385 515.856 762.8ZM502.174 782.9L502.753 778.31C507.789 780.85 516.168 781.919 516.168 773.987V770.51C515.098 773.14 512.603 773.987 509.884 773.987C505.338 773.987 500.436 770.555 500.436 762.845C500.57 754.689 506.23 751.481 512.87 751.614C515.945 751.659 519.065 752.417 521.917 753.62V773.987C521.917 785.529 510.954 787.668 502.174 782.9Z" fill="#444444"/>
<path d="M471.965 755.67V752.015C475.13 751.436 480.166 751.124 480.166 755.269C481.547 752.728 484.087 751.614 486.94 751.614C493.001 751.614 495.541 755.759 495.407 761.107V766.945C495.407 768.951 495.496 769.931 497.68 769.797V773.452C493.446 774.521 489.212 773.986 489.212 768.639V761.107C489.257 758.121 487.341 756.561 485.068 756.561C482.75 756.427 480.567 758.255 480.567 761.241V773.585H474.327V758.745C474.327 756.383 474.372 755.536 471.965 755.67Z" fill="#444444"/>
<path d="M449.876 755.091C450.767 752.64 453.263 751.436 455.892 751.436C457.541 751.392 459.234 751.882 460.482 752.818L459.101 758.032C457.808 757.185 456.471 756.829 455.09 756.873C452.371 756.873 450.054 758.656 450.054 761.954V773.586H443.948V758.433C443.948 756.651 443.77 755.492 441.809 755.804V751.971C444.929 751.258 449.519 751.258 449.876 755.091Z" fill="#444444"/>
<path d="M436.747 753.62V766.678C436.747 768.505 436.658 769.486 438.797 769.352V773.363C435.9 773.987 431.711 774.21 431.711 769.798C430.508 772.472 427.744 773.942 424.892 773.942C418.252 773.809 415.177 768.684 415.177 762.578C415.4 755.314 420.346 751.481 427.611 751.615C430.775 751.659 433.895 752.417 436.747 753.62ZM430.686 762.801V757.23C429.483 756.74 428.19 756.606 427.12 756.606C423.733 756.606 421.55 758.478 421.416 762.578C421.416 765.965 423.02 768.461 426.229 768.416C429.215 768.416 430.552 766.054 430.686 762.801Z" fill="#444444"/>
<path d="M403.701 752.104H409.94V767.123C409.94 769.129 410.029 769.842 411.945 769.708L411.99 773.585C408.959 774.298 404.146 774.61 404.146 770.466C402.943 772.961 399.957 773.897 397.283 773.897C391.088 773.897 389.306 769.753 389.306 764.405V752.104H395.59V764.405C395.456 767.435 397.105 768.995 399.288 768.995C401.784 769.04 403.701 767.168 403.701 764.271V752.104Z" fill="#444444"/>
<path d="M384.959 752.104V752.818L375.601 768.193H384.959V773.585H366.598V772.872L376.091 757.274H367.267V752.104H384.959Z" fill="#444444"/>
<path d="M355.57 745.909C355.57 741.141 362.879 741.141 362.879 745.909C362.879 750.723 355.57 750.723 355.57 745.909ZM362.344 752.372V773.585H356.105V752.372H362.344Z" fill="#444444"/>
<path d="M344.206 762.8V757.408C342.958 756.962 341.755 756.739 340.596 756.739C337.387 756.739 335.115 758.567 334.981 762.8C334.981 766.143 336.808 768.817 339.972 768.817C343.181 768.817 344.206 765.385 344.206 762.8ZM350.356 753.62V784.549H344.563V770.51C343.493 773.14 340.953 773.987 338.279 773.987C333.688 773.987 328.786 770.555 328.786 762.845C328.92 754.689 334.624 751.481 341.176 751.614C344.34 751.659 347.459 752.417 350.356 753.62Z" fill="#444444"/>
<path d="M317.31 752.104H323.549V767.123C323.549 769.129 323.638 769.842 325.555 769.708L325.599 773.585C322.569 774.298 317.756 774.61 317.756 770.466C316.552 772.961 313.566 773.897 310.892 773.897C304.698 773.897 302.915 769.753 302.915 764.405V752.104H309.199V764.405C309.065 767.435 310.714 768.995 312.898 768.995C315.394 769.04 317.31 767.168 317.31 764.271V752.104Z" fill="#444444"/>
<path d="M297.958 756.65V762.488H286.772V773.585H280.131V742.389H299.25V748.227H286.772V756.65H297.958Z" fill="#444444"/>
<defs>
<clipPath id="clip0_2766_771">
<rect width="1152.17" height="679.783" fill="white"/>
</clipPath>
</defs>
</svg>
